$ /opt/homebrew/bin/ffmpeg -hide_banner -i /Users/fan/Documents/视频工厂/复审包_review_packs/20260430_AI做PPT踩坑_成品候选_v31_visual_route_fix/AI做PPT踩坑_成品候选_v31_full.mp4 -vf blackdetect=d=0.5:pix_th=0.10 -an -f null -

STDOUT:


STDERR:
Input #0, mov,mp4,m4a,3gp,3g2,mj2, from '/Users/fan/Documents/视频工厂/复审包_review_packs/20260430_AI做PPT踩坑_成品候选_v31_visual_route_fix/AI做PPT踩坑_成品候选_v31_full.mp4':
  Metadata:
    major_brand     : isom
    minor_version   : 512
    compatible_brands: isomiso2avc1mp41
    encoder         : Lavf62.12.100
  Duration: 00:02:29.99, start: 0.000000, bitrate: 486 kb/s
  Stream #0:0[0x1](und): Video: h264 (High) (avc1 / 0x31637661), yuv420p(progressive), 720x1280, 376 kb/s, 25 fps, 25 tbr, 12800 tbn (default)
    Metadata:
      handler_name    : VideoHandler
      encoder         : Lavc62.28.100 libx264
  Stream #0:1[0x2](und): Audio: aac (LC) (mp4a / 0x6134706D), 24000 Hz, mono, fltp, 104 kb/s (default)
    Metadata:
      handler_name    : SoundHandler
Stream mapping:
  Stream #0:0 -> #0:0 (h264 (native) -> wrapped_avframe (native))
Press [q] to stop, [?] for help
Output #0, null, to 'pipe:':
  Metadata:
    major_brand     : isom
    minor_version   : 512
    compatible_brands: isomiso2avc1mp41
    encoder         : Lavf62.12.100
  Stream #0:0(und): Video: wrapped_avframe, yuv420p(progressive), 720x1280, q=2-31, 200 kb/s, 25 fps, 25 tbn (default)
    Metadata:
      encoder         : Lavc62.28.100 wrapped_avframe
      handler_name    : VideoHandler
[vf#0:0 @ 0xb6d0fc000] Reconfiguring filter graph because video parameters changed to yuv420p(tv, bt709), 720x1280, unspecified alph
frame= 1747 fps=0.0 q=-0.0 size=N/A time=00:01:09.88 bitrate=N/A speed= 139x elapsed=0:00:00.50    
frame= 3538 fps=3520 q=-0.0 size=N/A time=00:02:21.56 bitrate=N/A speed= 141x elapsed=0:00:01.00    
[out#0/null @ 0xb6cc089c0] video:1552KiB audio:0KiB subtitle:0KiB other streams:0KiB global headers:0KiB muxing overhead: unknown
frame= 3749 fps=3573 q=-0.0 Lsize=N/A time=00:02:29.96 bitrate=N/A speed= 143x elapsed=0:00:01.04    
